# xmcd
#
# Track frame offsets: 
#        150
#        11825
#        27041
#        44921
#        67418
#        88886
#        107095
#        130399
#        148401
#        162951
#        168960
#        190379
#        211138
#        222469
#        232484
#        253714
#        269672
#        282662
#        306505
#        323094
#
# Disc length: 4402 seconds
#
# Revision: 1
# Processed by: cddbd v1.5.2PL0 Copyright (c) Steve Scherf et al.
# Submitted via: ExactAudioCopy v0.99pb5
#
DISCID=54113014
DTITLE=The Game - Ghost Unit
DYEAR=2005
DGENRE=Gangsta rap
TTITLE0=Intro
TTITLE1=Here We Go Again (Feat. Dre)
TTITLE2=Mr. Poato Head
TTITLE3=Crack Music (Feat. Kanye West)
TTITLE4=Kiss Your Ass Goodbye (Feat Beanie Sigel, Sheek, Fabolous, Jad
TTITLE4=akiss)
TTITLE5=Old Gunz (Feat. Rockstar)
TTITLE6=Palm Pilot (Feat.Money Mike)
TTITLE7=They Sayin (Feat. G Malone)
TTITLE8=3 Killas (Feat. M.O.B.)
TTITLE9=Twist It (Feat. Olivia, Lloyd Banks, BBQ
TTITLE10=Oliver Part 2 (Feat BBQ)
TTITLE11=U Ain't Crazy (Feat. M.O.B.)
TTITLE12=It's On (Feat. Rockstar)
TTITLE13=Comin From The West Coast (Feat. M.O.B., Rockstar)
TTITLE14=Lyrical Exercise Part 2 (Feat. Rockstar)
TTITLE15=Stay Strapped (Feat. Techniec, Young Jeezy)
TTITLE16=Don't Cha (Feat. Rockstarm Dior)
TTITLE17=Don't Body Yourself Remix (Feat. Nas)
TTITLE18=Walkin In The Rain (Feat M.O.B.)
TTITLE19=Hurricane's In Stores November (FUCK REEBOKS)
EXTD=
EXTT0=
EXTT1=
EXTT2=
EXTT3=
EXTT4=
EXTT5=
EXTT6=
EXTT7=
EXTT8=
EXTT9=
EXTT10=
EXTT11=
EXTT12=
EXTT13=
EXTT14=
EXTT15=
EXTT16=
EXTT17=
EXTT18=
EXTT19=
PLAYORDER=
